ISO-10303-21;
HEADER;
/* Generated by software containing ST-Developer
 * from STEP Tools, Inc. (www.steptools.com) 
 */

FILE_DESCRIPTION(
/* description */ (''),
/* implementation_level */ '2;1');

FILE_NAME(
/* name */ 'Hackpad Sai Shreyansh.step',
/* time_stamp */ '2026-07-27T20:20:37+05:30',
/* author */ (''),
/* organization */ (''),
/* preprocessor_version */ 'ST-DEVELOPER v20.1',
/* originating_system */ 'Autodesk Translation Framework v15.8.0.0',
/* authorisation */ '');

FILE_SCHEMA (('AUTOMOTIVE_DESIGN { 1 0 10303 214 3 1 1 }'));
ENDSEC;

DATA;
#10=MECHANICAL_DESIGN_GEOMETRIC_PRESENTATION_REPRESENTATION('',(#13,#14,
#15),#1483);
#11=SHAPE_REPRESENTATION_RELATIONSHIP('SRR','None',#1490,#12);
#12=ADVANCED_BREP_SHAPE_REPRESENTATION('',(#16,#17,#18),#1482);
#13=STYLED_ITEM('',(#1500),#16);
#14=STYLED_ITEM('',(#1501),#17);
#15=STYLED_ITEM('',(#1502),#18);
#16=MANIFOLD_SOLID_BREP('Body2',#921);
#17=MANIFOLD_SOLID_BREP('Body3',#922);
#18=MANIFOLD_SOLID_BREP('Body6',#923);
#19=CYLINDRICAL_SURFACE('',#949,1.45);
#20=CYLINDRICAL_SURFACE('',#951,1.45);
#21=CYLINDRICAL_SURFACE('',#953,1.45);
#22=CYLINDRICAL_SURFACE('',#955,1.45);
#23=CYLINDRICAL_SURFACE('',#972,1.45);
#24=CYLINDRICAL_SURFACE('',#973,1.45);
#25=CYLINDRICAL_SURFACE('',#974,1.45);
#26=CYLINDRICAL_SURFACE('',#975,1.45);
#27=FACE_BOUND('',#121,.T.);
#28=FACE_BOUND('',#122,.T.);
#29=FACE_BOUND('',#123,.T.);
#30=FACE_BOUND('',#124,.T.);
#31=FACE_BOUND('',#134,.T.);
#32=FACE_BOUND('',#135,.T.);
#33=FACE_BOUND('',#136,.T.);
#34=FACE_BOUND('',#137,.T.);
#35=FACE_BOUND('',#138,.T.);
#36=FACE_BOUND('',#140,.T.);
#37=FACE_BOUND('',#141,.T.);
#38=FACE_BOUND('',#142,.T.);
#39=FACE_BOUND('',#143,.T.);
#40=FACE_BOUND('',#144,.T.);
#41=FACE_BOUND('',#145,.T.);
#42=FACE_BOUND('',#146,.T.);
#43=FACE_BOUND('',#150,.T.);
#44=FACE_BOUND('',#151,.T.);
#45=FACE_BOUND('',#152,.T.);
#46=FACE_BOUND('',#153,.T.);
#47=FACE_BOUND('',#154,.T.);
#48=FACE_BOUND('',#155,.T.);
#49=FACE_BOUND('',#156,.T.);
#50=FACE_BOUND('',#176,.T.);
#51=FACE_BOUND('',#186,.T.);
#52=CIRCLE('',#943,1.45);
#53=CIRCLE('',#944,1.45);
#54=CIRCLE('',#945,1.45);
#55=CIRCLE('',#946,1.45);
#56=CIRCLE('',#950,1.45);
#57=CIRCLE('',#952,1.45);
#58=CIRCLE('',#954,1.45);
#59=CIRCLE('',#956,1.45);
#60=CIRCLE('',#961,1.45);
#61=CIRCLE('',#962,1.45);
#62=CIRCLE('',#963,1.45);
#63=CIRCLE('',#964,1.45);
#64=CIRCLE('',#968,1.45);
#65=CIRCLE('',#969,1.45);
#66=CIRCLE('',#970,1.45);
#67=CIRCLE('',#971,1.45);
#68=FACE_OUTER_BOUND('',#115,.T.);
#69=FACE_OUTER_BOUND('',#116,.T.);
#70=FACE_OUTER_BOUND('',#117,.T.);
#71=FACE_OUTER_BOUND('',#118,.T.);
#72=FACE_OUTER_BOUND('',#119,.T.);
#73=FACE_OUTER_BOUND('',#120,.T.);
#74=FACE_OUTER_BOUND('',#125,.T.);
#75=FACE_OUTER_BOUND('',#126,.T.);
#76=FACE_OUTER_BOUND('',#127,.T.);
#77=FACE_OUTER_BOUND('',#128,.T.);
#78=FACE_OUTER_BOUND('',#129,.T.);
#79=FACE_OUTER_BOUND('',#130,.T.);
#80=FACE_OUTER_BOUND('',#131,.T.);
#81=FACE_OUTER_BOUND('',#132,.T.);
#82=FACE_OUTER_BOUND('',#133,.T.);
#83=FACE_OUTER_BOUND('',#139,.T.);
#84=FACE_OUTER_BOUND('',#147,.T.);
#85=FACE_OUTER_BOUND('',#148,.T.);
#86=FACE_OUTER_BOUND('',#149,.T.);
#87=FACE_OUTER_BOUND('',#157,.T.);
#88=FACE_OUTER_BOUND('',#158,.T.);
#89=FACE_OUTER_BOUND('',#159,.T.);
#90=FACE_OUTER_BOUND('',#160,.T.);
#91=FACE_OUTER_BOUND('',#161,.T.);
#92=FACE_OUTER_BOUND('',#162,.T.);
#93=FACE_OUTER_BOUND('',#163,.T.);
#94=FACE_OUTER_BOUND('',#164,.T.);
#95=FACE_OUTER_BOUND('',#165,.T.);
#96=FACE_OUTER_BOUND('',#166,.T.);
#97=FACE_OUTER_BOUND('',#167,.T.);
#98=FACE_OUTER_BOUND('',#168,.T.);
#99=FACE_OUTER_BOUND('',#169,.T.);
#100=FACE_OUTER_BOUND('',#170,.T.);
#101=FACE_OUTER_BOUND('',#171,.T.);
#102=FACE_OUTER_BOUND('',#172,.T.);
#103=FACE_OUTER_BOUND('',#173,.T.);
#104=FACE_OUTER_BOUND('',#174,.T.);
#105=FACE_OUTER_BOUND('',#175,.T.);
#106=FACE_OUTER_BOUND('',#177,.T.);
#107=FACE_OUTER_BOUND('',#178,.T.);
#108=FACE_OUTER_BOUND('',#179,.T.);
#109=FACE_OUTER_BOUND('',#180,.T.);
#110=FACE_OUTER_BOUND('',#181,.T.);
#111=FACE_OUTER_BOUND('',#182,.T.);
#112=FACE_OUTER_BOUND('',#183,.T.);
#113=FACE_OUTER_BOUND('',#184,.T.);
#114=FACE_OUTER_BOUND('',#185,.T.);
#115=EDGE_LOOP('',(#595,#596,#597,#598));
#116=EDGE_LOOP('',(#599,#600,#601,#602));
#117=EDGE_LOOP('',(#603,#604,#605,#606));
#118=EDGE_LOOP('',(#607,#608,#609,#610));
#119=EDGE_LOOP('',(#611,#612,#613,#614));
#120=EDGE_LOOP('',(#615,#616,#617,#618));
#121=EDGE_LOOP('',(#619));
#122=EDGE_LOOP('',(#620));
#123=EDGE_LOOP('',(#621));
#124=EDGE_LOOP('',(#622));
#125=EDGE_LOOP('',(#623,#624,#625,#626));
#126=EDGE_LOOP('',(#627,#628,#629,#630));
#127=EDGE_LOOP('',(#631,#632,#633,#634));
#128=EDGE_LOOP('',(#635,#636,#637,#638));
#129=EDGE_LOOP('',(#639,#640,#641,#642));
#130=EDGE_LOOP('',(#643,#644,#645,#646));
#131=EDGE_LOOP('',(#647,#648,#649,#650));
#132=EDGE_LOOP('',(#651,#652,#653,#654));
#133=EDGE_LOOP('',(#655,#656,#657,#658));
#134=EDGE_LOOP('',(#659));
#135=EDGE_LOOP('',(#660));
#136=EDGE_LOOP('',(#661));
#137=EDGE_LOOP('',(#662));
#138=EDGE_LOOP('',(#663,#664,#665,#666));
#139=EDGE_LOOP('',(#667,#668,#669,#670));
#140=EDGE_LOOP('',(#671,#672,#673,#674));
#141=EDGE_LOOP('',(#675,#676,#677,#678));
#142=EDGE_LOOP('',(#679,#680,#681,#682));
#143=EDGE_LOOP('',(#683));
#144=EDGE_LOOP('',(#684));
#145=EDGE_LOOP('',(#685));
#146=EDGE_LOOP('',(#686));
#147=EDGE_LOOP('',(#687,#688,#689,#690));
#148=EDGE_LOOP('',(#691,#692,#693,#694));
#149=EDGE_LOOP('',(#695,#696,#697,#698));
#150=EDGE_LOOP('',(#699,#700,#701,#702));
#151=EDGE_LOOP('',(#703,#704,#705,#706));
#152=EDGE_LOOP('',(#707,#708,#709,#710));
#153=EDGE_LOOP('',(#711));
#154=EDGE_LOOP('',(#712));
#155=EDGE_LOOP('',(#713));
#156=EDGE_LOOP('',(#714));
#157=EDGE_LOOP('',(#715,#716,#717,#718));
#158=EDGE_LOOP('',(#719,#720,#721,#722));
#159=EDGE_LOOP('',(#723,#724,#725,#726));
#160=EDGE_LOOP('',(#727,#728,#729,#730));
#161=EDGE_LOOP('',(#731,#732,#733,#734));
#162=EDGE_LOOP('',(#735,#736,#737,#738));
#163=EDGE_LOOP('',(#739,#740,#741,#742));
#164=EDGE_LOOP('',(#743,#744,#745,#746));
#165=EDGE_LOOP('',(#747,#748,#749,#750));
#166=EDGE_LOOP('',(#751,#752,#753,#754));
#167=EDGE_LOOP('',(#755,#756,#757,#758));
#168=EDGE_LOOP('',(#759,#760,#761,#762));
#169=EDGE_LOOP('',(#763,#764,#765,#766));
#170=EDGE_LOOP('',(#767,#768,#769,#770));
#171=EDGE_LOOP('',(#771,#772,#773,#774));
#172=EDGE_LOOP('',(#775,#776,#777,#778));
#173=EDGE_LOOP('',(#779,#780,#781,#782));
#174=EDGE_LOOP('',(#783,#784,#785,#786));
#175=EDGE_LOOP('',(#787,#788,#789,#790));
#176=EDGE_LOOP('',(#791,#792,#793,#794));
#177=EDGE_LOOP('',(#795,#796,#797,#798));
#178=EDGE_LOOP('',(#799,#800,#801,#802));
#179=EDGE_LOOP('',(#803,#804,#805,#806));
#180=EDGE_LOOP('',(#807,#808,#809,#810));
#181=EDGE_LOOP('',(#811,#812,#813,#814));
#182=EDGE_LOOP('',(#815,#816,#817,#818));
#183=EDGE_LOOP('',(#819,#820,#821,#822));
#184=EDGE_LOOP('',(#823,#824,#825,#826));
#185=EDGE_LOOP('',(#827,#828,#829,#830));
#186=EDGE_LOOP('',(#831,#832,#833,#834));
#187=LINE('',#1236,#291);
#188=LINE('',#1238,#292);
#189=LINE('',#1240,#293);
#190=LINE('',#1241,#294);
#191=LINE('',#1244,#295);
#192=LINE('',#1246,#296);
#193=LINE('',#1247,#297);
#194=LINE('',#1250,#298);
#195=LINE('',#1251,#299);
#196=LINE('',#1254,#300);
#197=LINE('',#1255,#301);
#198=LINE('',#1257,#302);
#199=LINE('',#1261,#303);
#200=LINE('',#1263,#304);
#201=LINE('',#1265,#305);
#202=LINE('',#1266,#306);
#203=LINE('',#1278,#307);
#204=LINE('',#1279,#308);
#205=LINE('',#1280,#309);
#206=LINE('',#1283,#310);
#207=LINE('',#1284,#311);
#208=LINE('',#1287,#312);
#209=LINE('',#1291,#313);
#210=LINE('',#1295,#314);
#211=LINE('',#1299,#315);
#212=LINE('',#1303,#316);
#213=LINE('',#1304,#317);
#214=LINE('',#1306,#318);
#215=LINE('',#1311,#319);
#216=LINE('',#1313,#320);
#217=LINE('',#1315,#321);
#218=LINE('',#1316,#322);
#219=LINE('',#1319,#323);
#220=LINE('',#1321,#324);
#221=LINE('',#1323,#325);
#222=LINE('',#1324,#326);
#223=LINE('',#1327,#327);
#224=LINE('',#1329,#328);
#225=LINE('',#1331,#329);
#226=LINE('',#1332,#330);
#227=LINE('',#1335,#331);
#228=LINE('',#1337,#332);
#229=LINE('',#1339,#333);
#230=LINE('',#1340,#334);
#231=LINE('',#1351,#335);
#232=LINE('',#1353,#336);
#233=LINE('',#1354,#337);
#234=LINE('',#1357,#338);
#235=LINE('',#1358,#339);
#236=LINE('',#1361,#340);
#237=LINE('',#1362,#341);
#238=LINE('',#1365,#342);
#239=LINE('',#1367,#343);
#240=LINE('',#1369,#344);
#241=LINE('',#1370,#345);
#242=LINE('',#1373,#346);
#243=LINE('',#1375,#347);
#244=LINE('',#1377,#348);
#245=LINE('',#1378,#349);
#246=LINE('',#1381,#350);
#247=LINE('',#1383,#351);
#248=LINE('',#1385,#352);
#249=LINE('',#1386,#353);
#250=LINE('',#1396,#354);
#251=LINE('',#1398,#355);
#252=LINE('',#1400,#356);
#253=LINE('',#1402,#357);
#254=LINE('',#1404,#358);
#255=LINE('',#1407,#359);
#256=LINE('',#1408,#360);
#257=LINE('',#1410,#361);
#258=LINE('',#1412,#362);
#259=LINE('',#1415,#363);
#260=LINE('',#1416,#364);
#261=LINE('',#1418,#365);
#262=LINE('',#1420,#366);
#263=LINE('',#1423,#367);
#264=LINE('',#1424,#368);
#265=LINE('',#1426,#369);
#266=LINE('',#1428,#370);
#267=LINE('',#1433,#371);
#268=LINE('',#1435,#372);
#269=LINE('',#1437,#373);
#270=LINE('',#1438,#374);
#271=LINE('',#1441,#375);
#272=LINE('',#1443,#376);
#273=LINE('',#1445,#377);
#274=LINE('',#1446,#378);
#275=LINE('',#1449,#379);
#276=LINE('',#1451,#380);
#277=LINE('',#1452,#381);
#278=LINE('',#1455,#382);
#279=LINE('',#1456,#383);
#280=LINE('',#1459,#384);
#281=LINE('',#1460,#385);
#282=LINE('',#1462,#386);
#283=LINE('',#1465,#387);
#284=LINE('',#1467,#388);
#285=LINE('',#1468,#389);
#286=LINE('',#1471,#390);
#287=LINE('',#1472,#391);
#288=LINE('',#1475,#392);
#289=LINE('',#1476,#393);
#290=LINE('',#1478,#394);
#291=VECTOR('',#1004,10.);
#292=VECTOR('',#1005,10.);
#293=VECTOR('',#1006,10.);
#294=VECTOR('',#1007,10.);
#295=VECTOR('',#1010,10.);
#296=VECTOR('',#1011,10.);
#297=VECTOR('',#1012,10.);
#298=VECTOR('',#1015,10.);
#299=VECTOR('',#1016,10.);
#300=VECTOR('',#1019,10.);
#301=VECTOR('',#1020,10.);
#302=VECTOR('',#1023,10.);
#303=VECTOR('',#1026,10.);
#304=VECTOR('',#1027,10.);
#305=VECTOR('',#1028,10.);
#306=VECTOR('',#1029,10.);
#307=VECTOR('',#1040,10.);
#308=VECTOR('',#1041,10.);
#309=VECTOR('',#1042,10.);
#310=VECTOR('',#1045,10.);
#311=VECTOR('',#1046,10.);
#312=VECTOR('',#1049,1.45);
#313=VECTOR('',#1054,1.45);
#314=VECTOR('',#1059,1.45);
#315=VECTOR('',#1064,1.45);
#316=VECTOR('',#1069,10.);
#317=VECTOR('',#1070,10.);
#318=VECTOR('',#1073,10.);
#319=VECTOR('',#1078,10.);
#320=VECTOR('',#1079,10.);
#321=VECTOR('',#1080,10.);
#322=VECTOR('',#1081,10.);
#323=VECTOR('',#1082,10.);
#324=VECTOR('',#1083,10.);
#325=VECTOR('',#1084,10.);
#326=VECTOR('',#1085,10.);
#327=VECTOR('',#1086,10.);
#328=VECTOR('',#1087,10.);
#329=VECTOR('',#1088,10.);
#330=VECTOR('',#1089,10.);
#331=VECTOR('',#1090,10.);
#332=VECTOR('',#1091,10.);
#333=VECTOR('',#1092,10.);
#334=VECTOR('',#1093,10.);
#335=VECTOR('',#1104,10.);
#336=VECTOR('',#1105,10.);
#337=VECTOR('',#1106,10.);
#338=VECTOR('',#1109,10.);
#339=VECTOR('',#1110,10.);
#340=VECTOR('',#1113,10.);
#341=VECTOR('',#1114,10.);
#342=VECTOR('',#1115,10.);
#343=VECTOR('',#1116,10.);
#344=VECTOR('',#1117,10.);
#345=VECTOR('',#1118,10.);
#346=VECTOR('',#1119,10.);
#347=VECTOR('',#1120,10.);
#348=VECTOR('',#1121,10.);
#349=VECTOR('',#1122,10.);
#350=VECTOR('',#1123,10.);
#351=VECTOR('',#1124,10.);
#352=VECTOR('',#1125,10.);
#353=VECTOR('',#1126,10.);
#354=VECTOR('',#1137,1.45);
#355=VECTOR('',#1140,1.45);
#356=VECTOR('',#1143,1.45);
#357=VECTOR('',#1146,1.45);
#358=VECTOR('',#1149,10.);
#359=VECTOR('',#1154,10.);
#360=VECTOR('',#1155,10.);
#361=VECTOR('',#1158,10.);
#362=VECTOR('',#1161,10.);
#363=VECTOR('',#1166,10.);
#364=VECTOR('',#1167,10.);
#365=VECTOR('',#1170,10.);
#366=VECTOR('',#1173,10.);
#367=VECTOR('',#1178,10.);
#368=VECTOR('',#1179,10.);
#369=VECTOR('',#1182,10.);
#370=VECTOR('',#1185,10.);
#371=VECTOR('',#1190,10.);
#372=VECTOR('',#1191,10.);
#373=VECTOR('',#1192,10.);
#374=VECTOR('',#1193,10.);
#375=VECTOR('',#1194,10.);
#376=VECTOR('',#1195,10.);
#377=VECTOR('',#1196,10.);
#378=VECTOR('',#1197,10.);
#379=VECTOR('',#1200,10.);
#380=VECTOR('',#1201,10.);
#381=VECTOR('',#1202,10.);
#382=VECTOR('',#1205,10.);
#383=VECTOR('',#1206,10.);
#384=VECTOR('',#1209,10.);
#385=VECTOR('',#1210,10.);
#386=VECTOR('',#1213,10.);
#387=VECTOR('',#1216,10.);
#388=VECTOR('',#1217,10.);
#389=VECTOR('',#1218,10.);
#390=VECTOR('',#1221,10.);
#391=VECTOR('',#1222,10.);
#392=VECTOR('',#1225,10.);
#393=VECTOR('',#1226,10.);
#394=VECTOR('',#1229,10.);
#395=VERTEX_POINT('',#1234);
#396=VERTEX_POINT('',#1235);
#397=VERTEX_POINT('',#1237);
#398=VERTEX_POINT('',#1239);
#399=VERTEX_POINT('',#1243);
#400=VERTEX_POINT('',#1245);
#401=VERTEX_POINT('',#1249);
#402=VERTEX_POINT('',#1253);
#403=VERTEX_POINT('',#1259);
#404=VERTEX_POINT('',#1260);
#405=VERTEX_POINT('',#1262);
#406=VERTEX_POINT('',#1264);
#407=VERTEX_POINT('',#1267);
#408=VERTEX_POINT('',#1269);
#409=VERTEX_POINT('',#1271);
#410=VERTEX_POINT('',#1273);
#411=VERTEX_POINT('',#1276);
#412=VERTEX_POINT('',#1277);
#413=VERTEX_POINT('',#1282);
#414=VERTEX_POINT('',#1286);
#415=VERTEX_POINT('',#1290);
#416=VERTEX_POINT('',#1294);
#417=VERTEX_POINT('',#1298);
#418=VERTEX_POINT('',#1302);
#419=VERTEX_POINT('',#1309);
#420=VERTEX_POINT('',#1310);
#421=VERTEX_POINT('',#1312);
#422=VERTEX_POINT('',#1314);
#423=VERTEX_POINT('',#1317);
#424=VERTEX_POINT('',#1318);
#425=VERTEX_POINT('',#1320);
#426=VERTEX_POINT('',#1322);
#427=VERTEX_POINT('',#1325);
#428=VERTEX_POINT('',#1326);
#429=VERTEX_POINT('',#1328);
#430=VERTEX_POINT('',#1330);
#431=VERTEX_POINT('',#1333);
#432=VERTEX_POINT('',#1334);
#433=VERTEX_POINT('',#1336);
#434=VERTEX_POINT('',#1338);
#435=VERTEX_POINT('',#1341);
#436=VERTEX_POINT('',#1343);
#437=VERTEX_POINT('',#1345);
#438=VERTEX_POINT('',#1347);
#439=VERTEX_POINT('',#1350);
#440=VERTEX_POINT('',#1352);
#441=VERTEX_POINT('',#1356);
#442=VERTEX_POINT('',#1360);
#443=VERTEX_POINT('',#1363);
#444=VERTEX_POINT('',#1364);
#445=VERTEX_POINT('',#1366);
#446=VERTEX_POINT('',#1368);
#447=VERTEX_POINT('',#1371);
#448=VERTEX_POINT('',#1372);
#449=VERTEX_POINT('',#1374);
#450=VERTEX_POINT('',#1376);
#451=VERTEX_POINT('',#1379);
#452=VERTEX_POINT('',#1380);
#453=VERTEX_POINT('',#1382);
#454=VERTEX_POINT('',#1384);
#455=VERTEX_POINT('',#1387);
#456=VERTEX_POINT('',#1389);
#457=VERTEX_POINT('',#1391);
#458=VERTEX_POINT('',#1393);
#459=VERTEX_POINT('',#1431);
#460=VERTEX_POINT('',#1432);
#461=VERTEX_POINT('',#1434);
#462=VERTEX_POINT('',#1436);
#463=VERTEX_POINT('',#1439);
#464=VERTEX_POINT('',#1440);
#465=VERTEX_POINT('',#1442);
#466=VERTEX_POINT('',#1444);
#467=VERTEX_POINT('',#1448);
#468=VERTEX_POINT('',#1450);
#469=VERTEX_POINT('',#1454);
#470=VERTEX_POINT('',#1458);
#471=VERTEX_POINT('',#1464);
#472=VERTEX_POINT('',#1466);
#473=VERTEX_POINT('',#1470);
#474=VERTEX_POINT('',#1474);
#475=EDGE_CURVE('',#395,#396,#187,.T.);
#476=EDGE_CURVE('',#396,#397,#188,.T.);
#477=EDGE_CURVE('',#397,#398,#189,.T.);
#478=EDGE_CURVE('',#398,#395,#190,.T.);
#479=EDGE_CURVE('',#398,#399,#191,.T.);
#480=EDGE_CURVE('',#400,#399,#192,.T.);
#481=EDGE_CURVE('',#395,#400,#193,.T.);
#482=EDGE_CURVE('',#397,#401,#194,.T.);
#483=EDGE_CURVE('',#399,#401,#195,.T.);
#484=EDGE_CURVE('',#396,#402,#196,.T.);
#485=EDGE_CURVE('',#401,#402,#197,.T.);
#486=EDGE_CURVE('',#402,#400,#198,.T.);
#487=EDGE_CURVE('',#403,#404,#199,.T.);
#488=EDGE_CURVE('',#405,#403,#200,.T.);
#489=EDGE_CURVE('',#406,#405,#201,.T.);
#490=EDGE_CURVE('',#404,#406,#202,.T.);
#491=EDGE_CURVE('',#407,#407,#52,.T.);
#492=EDGE_CURVE('',#408,#408,#53,.T.);
#493=EDGE_CURVE('',#409,#409,#54,.T.);
#494=EDGE_CURVE('',#410,#410,#55,.T.);
#495=EDGE_CURVE('',#411,#412,#203,.T.);
#496=EDGE_CURVE('',#404,#411,#204,.T.);
#497=EDGE_CURVE('',#406,#412,#205,.T.);
#498=EDGE_CURVE('',#412,#413,#206,.T.);
#499=EDGE_CURVE('',#405,#413,#207,.T.);
#500=EDGE_CURVE('',#407,#414,#208,.T.);
#501=EDGE_CURVE('',#414,#414,#56,.T.);
#502=EDGE_CURVE('',#408,#415,#209,.T.);
#503=EDGE_CURVE('',#415,#415,#57,.T.);
#504=EDGE_CURVE('',#409,#416,#210,.T.);
#505=EDGE_CURVE('',#416,#416,#58,.T.);
#506=EDGE_CURVE('',#410,#417,#211,.T.);
#507=EDGE_CURVE('',#417,#417,#59,.T.);
#508=EDGE_CURVE('',#413,#418,#212,.T.);
#509=EDGE_CURVE('',#403,#418,#213,.T.);
#510=EDGE_CURVE('',#418,#411,#214,.T.);
#511=EDGE_CURVE('',#419,#420,#215,.T.);
#512=EDGE_CURVE('',#421,#419,#216,.T.);
#513=EDGE_CURVE('',#422,#421,#217,.T.);
#514=EDGE_CURVE('',#420,#422,#218,.T.);
#515=EDGE_CURVE('',#423,#424,#219,.T.);
#516=EDGE_CURVE('',#424,#425,#220,.T.);
#517=EDGE_CURVE('',#425,#426,#221,.T.);
#518=EDGE_CURVE('',#426,#423,#222,.T.);
#519=EDGE_CURVE('',#427,#428,#223,.T.);
#520=EDGE_CURVE('',#428,#429,#224,.T.);
#521=EDGE_CURVE('',#429,#430,#225,.T.);
#522=EDGE_CURVE('',#430,#427,#226,.T.);
#523=EDGE_CURVE('',#431,#432,#227,.T.);
#524=EDGE_CURVE('',#432,#433,#228,.T.);
#525=EDGE_CURVE('',#433,#434,#229,.T.);
#526=EDGE_CURVE('',#434,#431,#230,.T.);
#527=EDGE_CURVE('',#435,#435,#60,.T.);
#528=EDGE_CURVE('',#436,#436,#61,.T.);
#529=EDGE_CURVE('',#437,#437,#62,.T.);
#530=EDGE_CURVE('',#438,#438,#63,.T.);
#531=EDGE_CURVE('',#421,#439,#231,.T.);
#532=EDGE_CURVE('',#440,#439,#232,.T.);
#533=EDGE_CURVE('',#422,#440,#233,.T.);
#534=EDGE_CURVE('',#419,#441,#234,.T.);
#535=EDGE_CURVE('',#439,#441,#235,.T.);
#536=EDGE_CURVE('',#442,#440,#236,.T.);
#537=EDGE_CURVE('',#441,#442,#237,.T.);
#538=EDGE_CURVE('',#443,#444,#238,.T.);
#539=EDGE_CURVE('',#444,#445,#239,.T.);
#540=EDGE_CURVE('',#445,#446,#240,.T.);
#541=EDGE_CURVE('',#446,#443,#241,.T.);
#542=EDGE_CURVE('',#447,#448,#242,.T.);
#543=EDGE_CURVE('',#448,#449,#243,.T.);
#544=EDGE_CURVE('',#449,#450,#244,.T.);
#545=EDGE_CURVE('',#450,#447,#245,.T.);
#546=EDGE_CURVE('',#451,#452,#246,.T.);
#547=EDGE_CURVE('',#452,#453,#247,.T.);
#548=EDGE_CURVE('',#453,#454,#248,.T.);
#549=EDGE_CURVE('',#454,#451,#249,.T.);
#550=EDGE_CURVE('',#455,#455,#64,.T.);
#551=EDGE_CURVE('',#456,#456,#65,.T.);
#552=EDGE_CURVE('',#457,#457,#66,.T.);
#553=EDGE_CURVE('',#458,#458,#67,.T.);
#554=EDGE_CURVE('',#438,#458,#250,.T.);
#555=EDGE_CURVE('',#437,#457,#251,.T.);
#556=EDGE_CURVE('',#436,#456,#252,.T.);
#557=EDGE_CURVE('',#435,#455,#253,.T.);
#558=EDGE_CURVE('',#420,#442,#254,.T.);
#559=EDGE_CURVE('',#443,#424,#255,.T.);
#560=EDGE_CURVE('',#425,#446,#256,.T.);
#561=EDGE_CURVE('',#423,#444,#257,.T.);
#562=EDGE_CURVE('',#426,#445,#258,.T.);
#563=EDGE_CURVE('',#447,#428,#259,.T.);
#564=EDGE_CURVE('',#429,#450,#260,.T.);
#565=EDGE_CURVE('',#427,#448,#261,.T.);
#566=EDGE_CURVE('',#430,#449,#262,.T.);
#567=EDGE_CURVE('',#451,#432,#263,.T.);
#568=EDGE_CURVE('',#433,#454,#264,.T.);
#569=EDGE_CURVE('',#431,#452,#265,.T.);
#570=EDGE_CURVE('',#434,#453,#266,.T.);
#571=EDGE_CURVE('',#459,#460,#267,.T.);
#572=EDGE_CURVE('',#460,#461,#268,.T.);
#573=EDGE_CURVE('',#461,#462,#269,.T.);
#574=EDGE_CURVE('',#462,#459,#270,.T.);
#575=EDGE_CURVE('',#463,#464,#271,.T.);
#576=EDGE_CURVE('',#464,#465,#272,.T.);
#577=EDGE_CURVE('',#465,#466,#273,.T.);
#578=EDGE_CURVE('',#466,#463,#274,.T.);
#579=EDGE_CURVE('',#467,#464,#275,.T.);
#580=EDGE_CURVE('',#468,#467,#276,.T.);
#581=EDGE_CURVE('',#465,#468,#277,.T.);
#582=EDGE_CURVE('',#469,#468,#278,.T.);
#583=EDGE_CURVE('',#466,#469,#279,.T.);
#584=EDGE_CURVE('',#470,#469,#280,.T.);
#585=EDGE_CURVE('',#463,#470,#281,.T.);
#586=EDGE_CURVE('',#467,#470,#282,.T.);
#587=EDGE_CURVE('',#471,#460,#283,.T.);
#588=EDGE_CURVE('',#472,#471,#284,.T.);
#589=EDGE_CURVE('',#461,#472,#285,.T.);
#590=EDGE_CURVE('',#473,#472,#286,.T.);
#591=EDGE_CURVE('',#462,#473,#287,.T.);
#592=EDGE_CURVE('',#474,#473,#288,.T.);
#593=EDGE_CURVE('',#459,#474,#289,.T.);
#594=EDGE_CURVE('',#471,#474,#290,.T.);
#595=ORIENTED_EDGE('',*,*,#475,.T.);
#596=ORIENTED_EDGE('',*,*,#476,.T.);
#597=ORIENTED_EDGE('',*,*,#477,.T.);
#598=ORIENTED_EDGE('',*,*,#478,.T.);
#599=ORIENTED_EDGE('',*,*,#478,.F.);
#600=ORIENTED_EDGE('',*,*,#479,.T.);
#601=ORIENTED_EDGE('',*,*,#480,.F.);
#602=ORIENTED_EDGE('',*,*,#481,.F.);
#603=ORIENTED_EDGE('',*,*,#477,.F.);
#604=ORIENTED_EDGE('',*,*,#482,.T.);
#605=ORIENTED_EDGE('',*,*,#483,.F.);
#606=ORIENTED_EDGE('',*,*,#479,.F.);
#607=ORIENTED_EDGE('',*,*,#476,.F.);
#608=ORIENTED_EDGE('',*,*,#484,.T.);
#609=ORIENTED_EDGE('',*,*,#485,.F.);
#610=ORIENTED_EDGE('',*,*,#482,.F.);
#611=ORIENTED_EDGE('',*,*,#475,.F.);
#612=ORIENTED_EDGE('',*,*,#481,.T.);
#613=ORIENTED_EDGE('',*,*,#486,.F.);
#614=ORIENTED_EDGE('',*,*,#484,.F.);
#615=ORIENTED_EDGE('',*,*,#487,.F.);
#616=ORIENTED_EDGE('',*,*,#488,.F.);
#617=ORIENTED_EDGE('',*,*,#489,.F.);
#618=ORIENTED_EDGE('',*,*,#490,.F.);
#619=ORIENTED_EDGE('',*,*,#491,.T.);
#620=ORIENTED_EDGE('',*,*,#492,.T.);
#621=ORIENTED_EDGE('',*,*,#493,.T.);
#622=ORIENTED_EDGE('',*,*,#494,.T.);
#623=ORIENTED_EDGE('',*,*,#495,.F.);
#624=ORIENTED_EDGE('',*,*,#496,.F.);
#625=ORIENTED_EDGE('',*,*,#490,.T.);
#626=ORIENTED_EDGE('',*,*,#497,.T.);
#627=ORIENTED_EDGE('',*,*,#498,.F.);
#628=ORIENTED_EDGE('',*,*,#497,.F.);
#629=ORIENTED_EDGE('',*,*,#489,.T.);
#630=ORIENTED_EDGE('',*,*,#499,.T.);
#631=ORIENTED_EDGE('',*,*,#491,.F.);
#632=ORIENTED_EDGE('',*,*,#500,.T.);
#633=ORIENTED_EDGE('',*,*,#501,.F.);
#634=ORIENTED_EDGE('',*,*,#500,.F.);
#635=ORIENTED_EDGE('',*,*,#492,.F.);
#636=ORIENTED_EDGE('',*,*,#502,.T.);
#637=ORIENTED_EDGE('',*,*,#503,.F.);
#638=ORIENTED_EDGE('',*,*,#502,.F.);
#639=ORIENTED_EDGE('',*,*,#493,.F.);
#640=ORIENTED_EDGE('',*,*,#504,.T.);
#641=ORIENTED_EDGE('',*,*,#505,.F.);
#642=ORIENTED_EDGE('',*,*,#504,.F.);
#643=ORIENTED_EDGE('',*,*,#494,.F.);
#644=ORIENTED_EDGE('',*,*,#506,.T.);
#645=ORIENTED_EDGE('',*,*,#507,.F.);
#646=ORIENTED_EDGE('',*,*,#506,.F.);
#647=ORIENTED_EDGE('',*,*,#508,.F.);
#648=ORIENTED_EDGE('',*,*,#499,.F.);
#649=ORIENTED_EDGE('',*,*,#488,.T.);
#650=ORIENTED_EDGE('',*,*,#509,.T.);
#651=ORIENTED_EDGE('',*,*,#510,.F.);
#652=ORIENTED_EDGE('',*,*,#509,.F.);
#653=ORIENTED_EDGE('',*,*,#487,.T.);
#654=ORIENTED_EDGE('',*,*,#496,.T.);
#655=ORIENTED_EDGE('',*,*,#508,.T.);
#656=ORIENTED_EDGE('',*,*,#510,.T.);
#657=ORIENTED_EDGE('',*,*,#495,.T.);
#658=ORIENTED_EDGE('',*,*,#498,.T.);
#659=ORIENTED_EDGE('',*,*,#507,.T.);
#660=ORIENTED_EDGE('',*,*,#505,.T.);
#661=ORIENTED_EDGE('',*,*,#503,.T.);
#662=ORIENTED_EDGE('',*,*,#501,.T.);
#663=ORIENTED_EDGE('',*,*,#486,.T.);
#664=ORIENTED_EDGE('',*,*,#480,.T.);
#665=ORIENTED_EDGE('',*,*,#483,.T.);
#666=ORIENTED_EDGE('',*,*,#485,.T.);
#667=ORIENTED_EDGE('',*,*,#511,.F.);
#668=ORIENTED_EDGE('',*,*,#512,.F.);
#669=ORIENTED_EDGE('',*,*,#513,.F.);
#670=ORIENTED_EDGE('',*,*,#514,.F.);
#671=ORIENTED_EDGE('',*,*,#515,.T.);
#672=ORIENTED_EDGE('',*,*,#516,.T.);
#673=ORIENTED_EDGE('',*,*,#517,.T.);
#674=ORIENTED_EDGE('',*,*,#518,.T.);
#675=ORIENTED_EDGE('',*,*,#519,.T.);
#676=ORIENTED_EDGE('',*,*,#520,.T.);
#677=ORIENTED_EDGE('',*,*,#521,.T.);
#678=ORIENTED_EDGE('',*,*,#522,.T.);
#679=ORIENTED_EDGE('',*,*,#523,.T.);
#680=ORIENTED_EDGE('',*,*,#524,.T.);
#681=ORIENTED_EDGE('',*,*,#525,.T.);
#682=ORIENTED_EDGE('',*,*,#526,.T.);
#683=ORIENTED_EDGE('',*,*,#527,.F.);
#684=ORIENTED_EDGE('',*,*,#528,.F.);
#685=ORIENTED_EDGE('',*,*,#529,.F.);
#686=ORIENTED_EDGE('',*,*,#530,.F.);
#687=ORIENTED_EDGE('',*,*,#513,.T.);
#688=ORIENTED_EDGE('',*,*,#531,.T.);
#689=ORIENTED_EDGE('',*,*,#532,.F.);
#690=ORIENTED_EDGE('',*,*,#533,.F.);
#691=ORIENTED_EDGE('',*,*,#512,.T.);
#692=ORIENTED_EDGE('',*,*,#534,.T.);
#693=ORIENTED_EDGE('',*,*,#535,.F.);
#694=ORIENTED_EDGE('',*,*,#531,.F.);
#695=ORIENTED_EDGE('',*,*,#536,.T.);
#696=ORIENTED_EDGE('',*,*,#532,.T.);
#697=ORIENTED_EDGE('',*,*,#535,.T.);
#698=ORIENTED_EDGE('',*,*,#537,.T.);
#699=ORIENTED_EDGE('',*,*,#538,.T.);
#700=ORIENTED_EDGE('',*,*,#539,.T.);
#701=ORIENTED_EDGE('',*,*,#540,.T.);
#702=ORIENTED_EDGE('',*,*,#541,.T.);
#703=ORIENTED_EDGE('',*,*,#542,.T.);
#704=ORIENTED_EDGE('',*,*,#543,.T.);
#705=ORIENTED_EDGE('',*,*,#544,.T.);
#706=ORIENTED_EDGE('',*,*,#545,.T.);
#707=ORIENTED_EDGE('',*,*,#546,.T.);
#708=ORIENTED_EDGE('',*,*,#547,.T.);
#709=ORIENTED_EDGE('',*,*,#548,.T.);
#710=ORIENTED_EDGE('',*,*,#549,.T.);
#711=ORIENTED_EDGE('',*,*,#550,.T.);
#712=ORIENTED_EDGE('',*,*,#551,.T.);
#713=ORIENTED_EDGE('',*,*,#552,.T.);
#714=ORIENTED_EDGE('',*,*,#553,.T.);
#715=ORIENTED_EDGE('',*,*,#530,.T.);
#716=ORIENTED_EDGE('',*,*,#554,.T.);
#717=ORIENTED_EDGE('',*,*,#553,.F.);
#718=ORIENTED_EDGE('',*,*,#554,.F.);
#719=ORIENTED_EDGE('',*,*,#529,.T.);
#720=ORIENTED_EDGE('',*,*,#555,.T.);
#721=ORIENTED_EDGE('',*,*,#552,.F.);
#722=ORIENTED_EDGE('',*,*,#555,.F.);
#723=ORIENTED_EDGE('',*,*,#528,.T.);
#724=ORIENTED_EDGE('',*,*,#556,.T.);
#725=ORIENTED_EDGE('',*,*,#551,.F.);
#726=ORIENTED_EDGE('',*,*,#556,.F.);
#727=ORIENTED_EDGE('',*,*,#527,.T.);
#728=ORIENTED_EDGE('',*,*,#557,.T.);
#729=ORIENTED_EDGE('',*,*,#550,.F.);
#730=ORIENTED_EDGE('',*,*,#557,.F.);
#731=ORIENTED_EDGE('',*,*,#511,.T.);
#732=ORIENTED_EDGE('',*,*,#558,.T.);
#733=ORIENTED_EDGE('',*,*,#537,.F.);
#734=ORIENTED_EDGE('',*,*,#534,.F.);
#735=ORIENTED_EDGE('',*,*,#514,.T.);
#736=ORIENTED_EDGE('',*,*,#533,.T.);
#737=ORIENTED_EDGE('',*,*,#536,.F.);
#738=ORIENTED_EDGE('',*,*,#558,.F.);
#739=ORIENTED_EDGE('',*,*,#516,.F.);
#740=ORIENTED_EDGE('',*,*,#559,.F.);
#741=ORIENTED_EDGE('',*,*,#541,.F.);
#742=ORIENTED_EDGE('',*,*,#560,.F.);
#743=ORIENTED_EDGE('',*,*,#515,.F.);
#744=ORIENTED_EDGE('',*,*,#561,.T.);
#745=ORIENTED_EDGE('',*,*,#538,.F.);
#746=ORIENTED_EDGE('',*,*,#559,.T.);
#747=ORIENTED_EDGE('',*,*,#518,.F.);
#748=ORIENTED_EDGE('',*,*,#562,.T.);
#749=ORIENTED_EDGE('',*,*,#539,.F.);
#750=ORIENTED_EDGE('',*,*,#561,.F.);
#751=ORIENTED_EDGE('',*,*,#517,.F.);
#752=ORIENTED_EDGE('',*,*,#560,.T.);
#753=ORIENTED_EDGE('',*,*,#540,.F.);
#754=ORIENTED_EDGE('',*,*,#562,.F.);
#755=ORIENTED_EDGE('',*,*,#520,.F.);
#756=ORIENTED_EDGE('',*,*,#563,.F.);
#757=ORIENTED_EDGE('',*,*,#545,.F.);
#758=ORIENTED_EDGE('',*,*,#564,.F.);
#759=ORIENTED_EDGE('',*,*,#519,.F.);
#760=ORIENTED_EDGE('',*,*,#565,.T.);
#761=ORIENTED_EDGE('',*,*,#542,.F.);
#762=ORIENTED_EDGE('',*,*,#563,.T.);
#763=ORIENTED_EDGE('',*,*,#522,.F.);
#764=ORIENTED_EDGE('',*,*,#566,.T.);
#765=ORIENTED_EDGE('',*,*,#543,.F.);
#766=ORIENTED_EDGE('',*,*,#565,.F.);
#767=ORIENTED_EDGE('',*,*,#521,.F.);
#768=ORIENTED_EDGE('',*,*,#564,.T.);
#769=ORIENTED_EDGE('',*,*,#544,.F.);
#770=ORIENTED_EDGE('',*,*,#566,.F.);
#771=ORIENTED_EDGE('',*,*,#524,.F.);
#772=ORIENTED_EDGE('',*,*,#567,.F.);
#773=ORIENTED_EDGE('',*,*,#549,.F.);
#774=ORIENTED_EDGE('',*,*,#568,.F.);
#775=ORIENTED_EDGE('',*,*,#523,.F.);
#776=ORIENTED_EDGE('',*,*,#569,.T.);
#777=ORIENTED_EDGE('',*,*,#546,.F.);
#778=ORIENTED_EDGE('',*,*,#567,.T.);
#779=ORIENTED_EDGE('',*,*,#526,.F.);
#780=ORIENTED_EDGE('',*,*,#570,.T.);
#781=ORIENTED_EDGE('',*,*,#547,.F.);
#782=ORIENTED_EDGE('',*,*,#569,.F.);
#783=ORIENTED_EDGE('',*,*,#525,.F.);
#784=ORIENTED_EDGE('',*,*,#568,.T.);
#785=ORIENTED_EDGE('',*,*,#548,.F.);
#786=ORIENTED_EDGE('',*,*,#570,.F.);
#787=ORIENTED_EDGE('',*,*,#571,.T.);
#788=ORIENTED_EDGE('',*,*,#572,.T.);
#789=ORIENTED_EDGE('',*,*,#573,.T.);
#790=ORIENTED_EDGE('',*,*,#574,.T.);
#791=ORIENTED_EDGE('',*,*,#575,.T.);
#792=ORIENTED_EDGE('',*,*,#576,.T.);
#793=ORIENTED_EDGE('',*,*,#577,.T.);
#794=ORIENTED_EDGE('',*,*,#578,.T.);
#795=ORIENTED_EDGE('',*,*,#579,.F.);
#796=ORIENTED_EDGE('',*,*,#580,.F.);
#797=ORIENTED_EDGE('',*,*,#581,.F.);
#798=ORIENTED_EDGE('',*,*,#576,.F.);
#799=ORIENTED_EDGE('',*,*,#581,.T.);
#800=ORIENTED_EDGE('',*,*,#582,.F.);
#801=ORIENTED_EDGE('',*,*,#583,.F.);
#802=ORIENTED_EDGE('',*,*,#577,.F.);
#803=ORIENTED_EDGE('',*,*,#583,.T.);
#804=ORIENTED_EDGE('',*,*,#584,.F.);
#805=ORIENTED_EDGE('',*,*,#585,.F.);
#806=ORIENTED_EDGE('',*,*,#578,.F.);
#807=ORIENTED_EDGE('',*,*,#585,.T.);
#808=ORIENTED_EDGE('',*,*,#586,.F.);
#809=ORIENTED_EDGE('',*,*,#579,.T.);
#810=ORIENTED_EDGE('',*,*,#575,.F.);
#811=ORIENTED_EDGE('',*,*,#587,.F.);
#812=ORIENTED_EDGE('',*,*,#588,.F.);
#813=ORIENTED_EDGE('',*,*,#589,.F.);
#814=ORIENTED_EDGE('',*,*,#572,.F.);
#815=ORIENTED_EDGE('',*,*,#589,.T.);
#816=ORIENTED_EDGE('',*,*,#590,.F.);
#817=ORIENTED_EDGE('',*,*,#591,.F.);
#818=ORIENTED_EDGE('',*,*,#573,.F.);
#819=ORIENTED_EDGE('',*,*,#591,.T.);
#820=ORIENTED_EDGE('',*,*,#592,.F.);
#821=ORIENTED_EDGE('',*,*,#593,.F.);
#822=ORIENTED_EDGE('',*,*,#574,.F.);
#823=ORIENTED_EDGE('',*,*,#593,.T.);
#824=ORIENTED_EDGE('',*,*,#594,.F.);
#825=ORIENTED_EDGE('',*,*,#587,.T.);
#826=ORIENTED_EDGE('',*,*,#571,.F.);
#827=ORIENTED_EDGE('',*,*,#594,.T.);
#828=ORIENTED_EDGE('',*,*,#592,.T.);
#829=ORIENTED_EDGE('',*,*,#590,.T.);
#830=ORIENTED_EDGE('',*,*,#588,.T.);
#831=ORIENTED_EDGE('',*,*,#586,.T.);
#832=ORIENTED_EDGE('',*,*,#584,.T.);
#833=ORIENTED_EDGE('',*,*,#582,.T.);
#834=ORIENTED_EDGE('',*,*,#580,.T.);
#835=PLANE('',#937);
#836=PLANE('',#938);
#837=PLANE('',#939);
#838=PLANE('',#940);
#839=PLANE('',#941);
#840=PLANE('',#942);
#841=PLANE('',#947);
#842=PLANE('',#948);
#843=PLANE('',#957);
#844=PLANE('',#958);
#845=PLANE('',#959);
#846=PLANE('',#960);
#847=PLANE('',#965);
#848=PLANE('',#966);
#849=PLANE('',#967);
#850=PLANE('',#976);
#851=PLANE('',#977);
#852=PLANE('',#978);
#853=PLANE('',#979);
#854=PLANE('',#980);
#855=PLANE('',#981);
#856=PLANE('',#982);
#857=PLANE('',#983);
#858=PLANE('',#984);
#859=PLANE('',#985);
#860=PLANE('',#986);
#861=PLANE('',#987);
#862=PLANE('',#988);
#863=PLANE('',#989);
#864=PLANE('',#990);
#865=PLANE('',#991);
#866=PLANE('',#992);
#867=PLANE('',#993);
#868=PLANE('',#994);
#869=PLANE('',#995);
#870=PLANE('',#996);
#871=PLANE('',#997);
#872=PLANE('',#998);
#873=PLANE('',#999);
#874=ADVANCED_FACE('',(#68),#835,.T.);
#875=ADVANCED_FACE('',(#69),#836,.T.);
#876=ADVANCED_FACE('',(#70),#837,.T.);
#877=ADVANCED_FACE('',(#71),#838,.T.);
#878=ADVANCED_FACE('',(#72),#839,.T.);
#879=ADVANCED_FACE('',(#73,#27,#28,#29,#30),#840,.F.);
#880=ADVANCED_FACE('',(#74),#841,.T.);
#881=ADVANCED_FACE('',(#75),#842,.T.);
#882=ADVANCED_FACE('',(#76),#19,.F.);
#883=ADVANCED_FACE('',(#77),#20,.F.);
#884=ADVANCED_FACE('',(#78),#21,.F.);
#885=ADVANCED_FACE('',(#79),#22,.F.);
#886=ADVANCED_FACE('',(#80),#843,.T.);
#887=ADVANCED_FACE('',(#81),#844,.T.);
#888=ADVANCED_FACE('',(#82,#31,#32,#33,#34,#35),#845,.T.);
#889=ADVANCED_FACE('',(#83,#36,#37,#38,#39,#40,#41,#42),#846,.F.);
#890=ADVANCED_FACE('',(#84),#847,.T.);
#891=ADVANCED_FACE('',(#85),#848,.T.);
#892=ADVANCED_FACE('',(#86,#43,#44,#45,#46,#47,#48,#49),#849,.T.);
#893=ADVANCED_FACE('',(#87),#23,.F.);
#894=ADVANCED_FACE('',(#88),#24,.F.);
#895=ADVANCED_FACE('',(#89),#25,.F.);
#896=ADVANCED_FACE('',(#90),#26,.F.);
#897=ADVANCED_FACE('',(#91),#850,.T.);
#898=ADVANCED_FACE('',(#92),#851,.T.);
#899=ADVANCED_FACE('',(#93),#852,.F.);
#900=ADVANCED_FACE('',(#94),#853,.F.);
#901=ADVANCED_FACE('',(#95),#854,.F.);
#902=ADVANCED_FACE('',(#96),#855,.F.);
#903=ADVANCED_FACE('',(#97),#856,.F.);
#904=ADVANCED_FACE('',(#98),#857,.F.);
#905=ADVANCED_FACE('',(#99),#858,.F.);
#906=ADVANCED_FACE('',(#100),#859,.F.);
#907=ADVANCED_FACE('',(#101),#860,.F.);
#908=ADVANCED_FACE('',(#102),#861,.F.);
#909=ADVANCED_FACE('',(#103),#862,.F.);
#910=ADVANCED_FACE('',(#104),#863,.F.);
#911=ADVANCED_FACE('',(#105,#50),#864,.T.);
#912=ADVANCED_FACE('',(#106),#865,.T.);
#913=ADVANCED_FACE('',(#107),#866,.T.);
#914=ADVANCED_FACE('',(#108),#867,.T.);
#915=ADVANCED_FACE('',(#109),#868,.T.);
#916=ADVANCED_FACE('',(#110),#869,.T.);
#917=ADVANCED_FACE('',(#111),#870,.T.);
#918=ADVANCED_FACE('',(#112),#871,.T.);
#919=ADVANCED_FACE('',(#113),#872,.T.);
#920=ADVANCED_FACE('',(#114,#51),#873,.T.);
#921=CLOSED_SHELL('',(#874,#875,#876,#877,#878,#879,#880,#881,#882,#883,
#884,#885,#886,#887,#888));
#922=CLOSED_SHELL('',(#889,#890,#891,#892,#893,#894,#895,#896,#897,#898,
#899,#900,#901,#902,#903,#904,#905,#906,#907,#908,#909,#910));
#923=CLOSED_SHELL('',(#911,#912,#913,#914,#915,#916,#917,#918,#919,#920));
#924=DERIVED_UNIT_ELEMENT(#926,1.);
#925=DERIVED_UNIT_ELEMENT(#1485,-3.);
#926=(
MASS_UNIT()
NAMED_UNIT(*)
SI_UNIT(.KILO.,.GRAM.)
);
#927=DERIVED_UNIT((#924,#925));
#928=MEASURE_REPRESENTATION_ITEM('density measure',
POSITIVE_RATIO_MEASURE(7850.),#927);
#929=PROPERTY_DEFINITION_REPRESENTATION(#934,#931);
#930=PROPERTY_DEFINITION_REPRESENTATION(#935,#932);
#931=REPRESENTATION('material name',(#933),#1482);
#932=REPRESENTATION('density',(#928),#1482);
#933=DESCRIPTIVE_REPRESENTATION_ITEM('Steel','Steel');
#934=PROPERTY_DEFINITION('material property','material name',#1492);
#935=PROPERTY_DEFINITION('material property','density of part',#1492);
#936=AXIS2_PLACEMENT_3D('',#1232,#1000,#1001);
#937=AXIS2_PLACEMENT_3D('',#1233,#1002,#1003);
#938=AXIS2_PLACEMENT_3D('',#1242,#1008,#1009);
#939=AXIS2_PLACEMENT_3D('',#1248,#1013,#1014);
#940=AXIS2_PLACEMENT_3D('',#1252,#1017,#1018);
#941=AXIS2_PLACEMENT_3D('',#1256,#1021,#1022);
#942=AXIS2_PLACEMENT_3D('',#1258,#1024,#1025);
#943=AXIS2_PLACEMENT_3D('',#1268,#1030,#1031);
#944=AXIS2_PLACEMENT_3D('',#1270,#1032,#1033);
#945=AXIS2_PLACEMENT_3D('',#1272,#1034,#1035);
#946=AXIS2_PLACEMENT_3D('',#1274,#1036,#1037);
#947=AXIS2_PLACEMENT_3D('',#1275,#1038,#1039);
#948=AXIS2_PLACEMENT_3D('',#1281,#1043,#1044);
#949=AXIS2_PLACEMENT_3D('',#1285,#1047,#1048);
#950=AXIS2_PLACEMENT_3D('',#1288,#1050,#1051);
#951=AXIS2_PLACEMENT_3D('',#1289,#1052,#1053);
#952=AXIS2_PLACEMENT_3D('',#1292,#1055,#1056);
#953=AXIS2_PLACEMENT_3D('',#1293,#1057,#1058);
#954=AXIS2_PLACEMENT_3D('',#1296,#1060,#1061);
#955=AXIS2_PLACEMENT_3D('',#1297,#1062,#1063);
#956=AXIS2_PLACEMENT_3D('',#1300,#1065,#1066);
#957=AXIS2_PLACEMENT_3D('',#1301,#1067,#1068);
#958=AXIS2_PLACEMENT_3D('',#1305,#1071,#1072);
#959=AXIS2_PLACEMENT_3D('',#1307,#1074,#1075);
#960=AXIS2_PLACEMENT_3D('',#1308,#1076,#1077);
#961=AXIS2_PLACEMENT_3D('',#1342,#1094,#1095);
#962=AXIS2_PLACEMENT_3D('',#1344,#1096,#1097);
#963=AXIS2_PLACEMENT_3D('',#1346,#1098,#1099);
#964=AXIS2_PLACEMENT_3D('',#1348,#1100,#1101);
#965=AXIS2_PLACEMENT_3D('',#1349,#1102,#1103);
#966=AXIS2_PLACEMENT_3D('',#1355,#1107,#1108);
#967=AXIS2_PLACEMENT_3D('',#1359,#1111,#1112);
#968=AXIS2_PLACEMENT_3D('',#1388,#1127,#1128);
#969=AXIS2_PLACEMENT_3D('',#1390,#1129,#1130);
#970=AXIS2_PLACEMENT_3D('',#1392,#1131,#1132);
#971=AXIS2_PLACEMENT_3D('',#1394,#1133,#1134);
#972=AXIS2_PLACEMENT_3D('',#1395,#1135,#1136);
#973=AXIS2_PLACEMENT_3D('',#1397,#1138,#1139);
#974=AXIS2_PLACEMENT_3D('',#1399,#1141,#1142);
#975=AXIS2_PLACEMENT_3D('',#1401,#1144,#1145);
#976=AXIS2_PLACEMENT_3D('',#1403,#1147,#1148);
#977=AXIS2_PLACEMENT_3D('',#1405,#1150,#1151);
#978=AXIS2_PLACEMENT_3D('',#1406,#1152,#1153);
#979=AXIS2_PLACEMENT_3D('',#1409,#1156,#1157);
#980=AXIS2_PLACEMENT_3D('',#1411,#1159,#1160);
#981=AXIS2_PLACEMENT_3D('',#1413,#1162,#1163);
#982=AXIS2_PLACEMENT_3D('',#1414,#1164,#1165);
#983=AXIS2_PLACEMENT_3D('',#1417,#1168,#1169);
#984=AXIS2_PLACEMENT_3D('',#1419,#1171,#1172);
#985=AXIS2_PLACEMENT_3D('',#1421,#1174,#1175);
#986=AXIS2_PLACEMENT_3D('',#1422,#1176,#1177);
#987=AXIS2_PLACEMENT_3D('',#1425,#1180,#1181);
#988=AXIS2_PLACEMENT_3D('',#1427,#1183,#1184);
#989=AXIS2_PLACEMENT_3D('',#1429,#1186,#1187);
#990=AXIS2_PLACEMENT_3D('',#1430,#1188,#1189);
#991=AXIS2_PLACEMENT_3D('',#1447,#1198,#1199);
#992=AXIS2_PLACEMENT_3D('',#1453,#1203,#1204);
#993=AXIS2_PLACEMENT_3D('',#1457,#1207,#1208);
#994=AXIS2_PLACEMENT_3D('',#1461,#1211,#1212);
#995=AXIS2_PLACEMENT_3D('',#1463,#1214,#1215);
#996=AXIS2_PLACEMENT_3D('',#1469,#1219,#1220);
#997=AXIS2_PLACEMENT_3D('',#1473,#1223,#1224);
#998=AXIS2_PLACEMENT_3D('',#1477,#1227,#1228);
#999=AXIS2_PLACEMENT_3D('',#1479,#1230,#1231);
#1000=DIRECTION('axis',(0.,0.,1.));
#1001=DIRECTION('refdir',(1.,0.,0.));
#1002=DIRECTION('center_axis',(0.,0.,1.));
#1003=DIRECTION('ref_axis',(1.,0.,0.));
#1004=DIRECTION('',(1.,0.,0.));
#1005=DIRECTION('',(0.,1.,0.));
#1006=DIRECTION('',(-1.,0.,0.));
#1007=DIRECTION('',(0.,-1.,0.));
#1008=DIRECTION('center_axis',(1.,0.,0.));
#1009=DIRECTION('ref_axis',(0.,1.,0.));
#1010=DIRECTION('',(0.,0.,1.));
#1011=DIRECTION('',(0.,1.,0.));
#1012=DIRECTION('',(0.,0.,1.));
#1013=DIRECTION('center_axis',(0.,-1.,0.));
#1014=DIRECTION('ref_axis',(1.,0.,0.));
#1015=DIRECTION('',(0.,0.,1.));
#1016=DIRECTION('',(1.,0.,0.));
#1017=DIRECTION('center_axis',(-1.,0.,0.));
#1018=DIRECTION('ref_axis',(0.,-1.,0.));
#1019=DIRECTION('',(0.,0.,1.));
#1020=DIRECTION('',(0.,-1.,0.));
#1021=DIRECTION('center_axis',(0.,1.,0.));
#1022=DIRECTION('ref_axis',(-1.,0.,0.));
#1023=DIRECTION('',(-1.,0.,0.));
#1024=DIRECTION('center_axis',(0.,0.,1.));
#1025=DIRECTION('ref_axis',(1.,0.,0.));
#1026=DIRECTION('',(0.,-1.,0.));
#1027=DIRECTION('',(-1.,0.,0.));
#1028=DIRECTION('',(0.,1.,0.));
#1029=DIRECTION('',(1.,0.,0.));
#1030=DIRECTION('center_axis',(0.,0.,1.));
#1031=DIRECTION('ref_axis',(1.,0.,0.));
#1032=DIRECTION('center_axis',(0.,0.,1.));
#1033=DIRECTION('ref_axis',(1.,0.,0.));
#1034=DIRECTION('center_axis',(0.,0.,1.));
#1035=DIRECTION('ref_axis',(1.,0.,0.));
#1036=DIRECTION('center_axis',(0.,0.,1.));
#1037=DIRECTION('ref_axis',(1.,0.,0.));
#1038=DIRECTION('center_axis',(0.,-1.,0.));
#1039=DIRECTION('ref_axis',(1.,0.,0.));
#1040=DIRECTION('',(1.,0.,0.));
#1041=DIRECTION('',(0.,0.,1.));
#1042=DIRECTION('',(0.,0.,1.));
#1043=DIRECTION('center_axis',(1.,0.,0.));
#1044=DIRECTION('ref_axis',(0.,1.,0.));
#1045=DIRECTION('',(0.,1.,0.));
#1046=DIRECTION('',(0.,0.,1.));
#1047=DIRECTION('center_axis',(0.,0.,1.));
#1048=DIRECTION('ref_axis',(1.,0.,0.));
#1049=DIRECTION('',(0.,0.,1.));
#1050=DIRECTION('center_axis',(0.,0.,-1.));
#1051=DIRECTION('ref_axis',(1.,0.,0.));
#1052=DIRECTION('center_axis',(0.,0.,1.));
#1053=DIRECTION('ref_axis',(1.,0.,0.));
#1054=DIRECTION('',(0.,0.,1.));
#1055=DIRECTION('center_axis',(0.,0.,-1.));
#1056=DIRECTION('ref_axis',(1.,0.,0.));
#1057=DIRECTION('center_axis',(0.,0.,1.));
#1058=DIRECTION('ref_axis',(1.,0.,0.));
#1059=DIRECTION('',(0.,0.,1.));
#1060=DIRECTION('center_axis',(0.,0.,-1.));
#1061=DIRECTION('ref_axis',(1.,0.,0.));
#1062=DIRECTION('center_axis',(0.,0.,1.));
#1063=DIRECTION('ref_axis',(1.,0.,0.));
#1064=DIRECTION('',(0.,0.,1.));
#1065=DIRECTION('center_axis',(0.,0.,-1.));
#1066=DIRECTION('ref_axis',(1.,0.,0.));
#1067=DIRECTION('center_axis',(0.,1.,0.));
#1068=DIRECTION('ref_axis',(-1.,0.,0.));
#1069=DIRECTION('',(-1.,0.,0.));
#1070=DIRECTION('',(0.,0.,1.));
#1071=DIRECTION('center_axis',(-1.,0.,0.));
#1072=DIRECTION('ref_axis',(0.,-1.,0.));
#1073=DIRECTION('',(0.,-1.,0.));
#1074=DIRECTION('center_axis',(0.,0.,1.));
#1075=DIRECTION('ref_axis',(1.,0.,0.));
#1076=DIRECTION('center_axis',(0.,0.,1.));
#1077=DIRECTION('ref_axis',(1.,0.,0.));
#1078=DIRECTION('',(-1.,0.,0.));
#1079=DIRECTION('',(0.,1.,0.));
#1080=DIRECTION('',(1.,0.,0.));
#1081=DIRECTION('',(0.,-1.,0.));
#1082=DIRECTION('',(-1.,0.,0.));
#1083=DIRECTION('',(0.,-1.,0.));
#1084=DIRECTION('',(1.,0.,0.));
#1085=DIRECTION('',(0.,1.,0.));
#1086=DIRECTION('',(-1.,0.,0.));
#1087=DIRECTION('',(0.,-1.,0.));
#1088=DIRECTION('',(1.,0.,0.));
#1089=DIRECTION('',(0.,1.,0.));
#1090=DIRECTION('',(-1.,0.,0.));
#1091=DIRECTION('',(0.,-1.,0.));
#1092=DIRECTION('',(1.,0.,0.));
#1093=DIRECTION('',(0.,1.,0.));
#1094=DIRECTION('center_axis',(0.,0.,-1.));
#1095=DIRECTION('ref_axis',(1.,0.,0.));
#1096=DIRECTION('center_axis',(0.,0.,-1.));
#1097=DIRECTION('ref_axis',(1.,0.,0.));
#1098=DIRECTION('center_axis',(0.,0.,-1.));
#1099=DIRECTION('ref_axis',(1.,0.,0.));
#1100=DIRECTION('center_axis',(0.,0.,-1.));
#1101=DIRECTION('ref_axis',(1.,0.,0.));
#1102=DIRECTION('center_axis',(0.,-1.,0.));
#1103=DIRECTION('ref_axis',(1.,0.,0.));
#1104=DIRECTION('',(0.,0.,1.));
#1105=DIRECTION('',(1.,0.,0.));
#1106=DIRECTION('',(0.,0.,1.));
#1107=DIRECTION('center_axis',(1.,0.,0.));
#1108=DIRECTION('ref_axis',(0.,1.,0.));
#1109=DIRECTION('',(0.,0.,1.));
#1110=DIRECTION('',(0.,1.,0.));
#1111=DIRECTION('center_axis',(0.,0.,1.));
#1112=DIRECTION('ref_axis',(1.,0.,0.));
#1113=DIRECTION('',(0.,-1.,0.));
#1114=DIRECTION('',(-1.,0.,0.));
#1115=DIRECTION('',(1.,0.,0.));
#1116=DIRECTION('',(0.,-1.,0.));
#1117=DIRECTION('',(-1.,0.,0.));
#1118=DIRECTION('',(0.,1.,0.));
#1119=DIRECTION('',(1.,0.,0.));
#1120=DIRECTION('',(0.,-1.,0.));
#1121=DIRECTION('',(-1.,0.,0.));
#1122=DIRECTION('',(0.,1.,0.));
#1123=DIRECTION('',(1.,0.,0.));
#1124=DIRECTION('',(0.,-1.,0.));
#1125=DIRECTION('',(-1.,0.,0.));
#1126=DIRECTION('',(0.,1.,0.));
#1127=DIRECTION('center_axis',(0.,0.,-1.));
#1128=DIRECTION('ref_axis',(1.,0.,0.));
#1129=DIRECTION('center_axis',(0.,0.,-1.));
#1130=DIRECTION('ref_axis',(1.,0.,0.));
#1131=DIRECTION('center_axis',(0.,0.,-1.));
#1132=DIRECTION('ref_axis',(1.,0.,0.));
#1133=DIRECTION('center_axis',(0.,0.,-1.));
#1134=DIRECTION('ref_axis',(1.,0.,0.));
#1135=DIRECTION('center_axis',(0.,0.,1.));
#1136=DIRECTION('ref_axis',(1.,0.,0.));
#1137=DIRECTION('',(0.,0.,1.));
#1138=DIRECTION('center_axis',(0.,0.,1.));
#1139=DIRECTION('ref_axis',(1.,0.,0.));
#1140=DIRECTION('',(0.,0.,1.));
#1141=DIRECTION('center_axis',(0.,0.,1.));
#1142=DIRECTION('ref_axis',(1.,0.,0.));
#1143=DIRECTION('',(0.,0.,1.));
#1144=DIRECTION('center_axis',(0.,0.,1.));
#1145=DIRECTION('ref_axis',(1.,0.,0.));
#1146=DIRECTION('',(0.,0.,1.));
#1147=DIRECTION('center_axis',(0.,1.,0.));
#1148=DIRECTION('ref_axis',(-1.,0.,0.));
#1149=DIRECTION('',(0.,0.,1.));
#1150=DIRECTION('center_axis',(-1.,0.,0.));
#1151=DIRECTION('ref_axis',(0.,-1.,0.));
#1152=DIRECTION('center_axis',(-1.,0.,0.));
#1153=DIRECTION('ref_axis',(0.,-1.,0.));
#1154=DIRECTION('',(0.,0.,-1.));
#1155=DIRECTION('',(0.,0.,1.));
#1156=DIRECTION('center_axis',(0.,1.,0.));
#1157=DIRECTION('ref_axis',(-1.,0.,0.));
#1158=DIRECTION('',(0.,0.,1.));
#1159=DIRECTION('center_axis',(1.,0.,0.));
#1160=DIRECTION('ref_axis',(0.,1.,0.));
#1161=DIRECTION('',(0.,0.,1.));
#1162=DIRECTION('center_axis',(0.,-1.,0.));
#1163=DIRECTION('ref_axis',(1.,0.,0.));
#1164=DIRECTION('center_axis',(-1.,0.,0.));
#1165=DIRECTION('ref_axis',(0.,-1.,0.));
#1166=DIRECTION('',(0.,0.,-1.));
#1167=DIRECTION('',(0.,0.,1.));
#1168=DIRECTION('center_axis',(0.,1.,0.));
#1169=DIRECTION('ref_axis',(-1.,0.,0.));
#1170=DIRECTION('',(0.,0.,1.));
#1171=DIRECTION('center_axis',(1.,0.,0.));
#1172=DIRECTION('ref_axis',(0.,1.,0.));
#1173=DIRECTION('',(0.,0.,1.));
#1174=DIRECTION('center_axis',(0.,-1.,0.));
#1175=DIRECTION('ref_axis',(1.,0.,0.));
#1176=DIRECTION('center_axis',(-1.,0.,0.));
#1177=DIRECTION('ref_axis',(0.,-1.,0.));
#1178=DIRECTION('',(0.,0.,-1.));
#1179=DIRECTION('',(0.,0.,1.));
#1180=DIRECTION('center_axis',(0.,1.,0.));
#1181=DIRECTION('ref_axis',(-1.,0.,0.));
#1182=DIRECTION('',(0.,0.,1.));
#1183=DIRECTION('center_axis',(1.,0.,0.));
#1184=DIRECTION('ref_axis',(0.,1.,0.));
#1185=DIRECTION('',(0.,0.,1.));
#1186=DIRECTION('center_axis',(0.,-1.,0.));
#1187=DIRECTION('ref_axis',(1.,0.,0.));
#1188=DIRECTION('center_axis',(0.,1.,0.));
#1189=DIRECTION('ref_axis',(0.,0.,1.));
#1190=DIRECTION('',(0.,0.,-1.));
#1191=DIRECTION('',(-1.,0.,0.));
#1192=DIRECTION('',(0.,0.,1.));
#1193=DIRECTION('',(1.,0.,0.));
#1194=DIRECTION('',(0.,0.,-1.));
#1195=DIRECTION('',(1.,0.,0.));
#1196=DIRECTION('',(0.,0.,1.));
#1197=DIRECTION('',(-1.,0.,0.));
#1198=DIRECTION('center_axis',(0.,0.,1.));
#1199=DIRECTION('ref_axis',(-1.,0.,0.));
#1200=DIRECTION('',(0.,1.,0.));
#1201=DIRECTION('',(-1.,0.,0.));
#1202=DIRECTION('',(0.,-1.,0.));
#1203=DIRECTION('center_axis',(-1.,0.,0.));
#1204=DIRECTION('ref_axis',(0.,0.,-1.));
#1205=DIRECTION('',(0.,0.,-1.));
#1206=DIRECTION('',(0.,-1.,0.));
#1207=DIRECTION('center_axis',(0.,0.,-1.));
#1208=DIRECTION('ref_axis',(1.,0.,0.));
#1209=DIRECTION('',(1.,0.,0.));
#1210=DIRECTION('',(0.,-1.,0.));
#1211=DIRECTION('center_axis',(1.,0.,0.));
#1212=DIRECTION('ref_axis',(0.,0.,1.));
#1213=DIRECTION('',(0.,0.,1.));
#1214=DIRECTION('center_axis',(0.,0.,-1.));
#1215=DIRECTION('ref_axis',(1.,0.,0.));
#1216=DIRECTION('',(0.,1.,0.));
#1217=DIRECTION('',(1.,0.,0.));
#1218=DIRECTION('',(0.,-1.,0.));
#1219=DIRECTION('center_axis',(-1.,0.,0.));
#1220=DIRECTION('ref_axis',(0.,0.,-1.));
#1221=DIRECTION('',(0.,0.,-1.));
#1222=DIRECTION('',(0.,-1.,0.));
#1223=DIRECTION('center_axis',(0.,0.,1.));
#1224=DIRECTION('ref_axis',(-1.,0.,0.));
#1225=DIRECTION('',(-1.,0.,0.));
#1226=DIRECTION('',(0.,-1.,0.));
#1227=DIRECTION('center_axis',(1.,0.,0.));
#1228=DIRECTION('ref_axis',(0.,0.,1.));
#1229=DIRECTION('',(0.,0.,1.));
#1230=DIRECTION('center_axis',(0.,-1.,0.));
#1231=DIRECTION('ref_axis',(0.,0.,-1.));
#1232=CARTESIAN_POINT('',(0.,0.,0.));
#1233=CARTESIAN_POINT('Origin',(9.7,28.9,3.));
#1234=CARTESIAN_POINT('',(0.,0.,3.));
#1235=CARTESIAN_POINT('',(19.4,0.,3.));
#1236=CARTESIAN_POINT('',(14.55,0.,3.));
#1237=CARTESIAN_POINT('',(19.4,57.8,3.));
#1238=CARTESIAN_POINT('',(19.4,43.35,3.));
#1239=CARTESIAN_POINT('',(0.,57.8,3.));
#1240=CARTESIAN_POINT('',(4.85,57.8,3.));
#1241=CARTESIAN_POINT('',(0.,14.45,3.));
#1242=CARTESIAN_POINT('Origin',(0.,0.,3.));
#1243=CARTESIAN_POINT('',(0.,57.8,13.));
#1244=CARTESIAN_POINT('',(0.,57.8,3.));
#1245=CARTESIAN_POINT('',(0.,0.,13.));
#1246=CARTESIAN_POINT('',(0.,57.8,13.));
#1247=CARTESIAN_POINT('',(0.,0.,3.));
#1248=CARTESIAN_POINT('Origin',(0.,57.8,3.));
#1249=CARTESIAN_POINT('',(19.4,57.8,13.));
#1250=CARTESIAN_POINT('',(19.4,57.8,3.));
#1251=CARTESIAN_POINT('',(19.4,57.8,13.));
#1252=CARTESIAN_POINT('Origin',(19.4,57.8,3.));
#1253=CARTESIAN_POINT('',(19.4,0.,13.));
#1254=CARTESIAN_POINT('',(19.4,0.,3.));
#1255=CARTESIAN_POINT('',(19.4,0.,13.));
#1256=CARTESIAN_POINT('Origin',(19.4,0.,3.));
#1257=CARTESIAN_POINT('',(0.,0.,13.));
#1258=CARTESIAN_POINT('Origin',(9.7,28.9,0.));
#1259=CARTESIAN_POINT('',(-10.,67.8,0.));
#1260=CARTESIAN_POINT('',(-10.,-10.,0.));
#1261=CARTESIAN_POINT('',(-10.,67.8,0.));
#1262=CARTESIAN_POINT('',(29.4,67.8,0.));
#1263=CARTESIAN_POINT('',(29.4,67.8,0.));
#1264=CARTESIAN_POINT('',(29.4,-10.,0.));
#1265=CARTESIAN_POINT('',(29.4,-10.,0.));
#1266=CARTESIAN_POINT('',(-10.,-10.,0.));
#1267=CARTESIAN_POINT('',(22.95,62.8,0.));
#1268=CARTESIAN_POINT('Origin',(24.4,62.8,0.));
#1269=CARTESIAN_POINT('',(-6.45,-5.,0.));
#1270=CARTESIAN_POINT('Origin',(-5.,-5.,0.));
#1271=CARTESIAN_POINT('',(-6.45,62.8,0.));
#1272=CARTESIAN_POINT('Origin',(-5.,62.8,0.));
#1273=CARTESIAN_POINT('',(22.95,-5.,0.));
#1274=CARTESIAN_POINT('Origin',(24.4,-5.,0.));
#1275=CARTESIAN_POINT('Origin',(-10.,-10.,0.));
#1276=CARTESIAN_POINT('',(-10.,-10.,13.));
#1277=CARTESIAN_POINT('',(29.4,-10.,13.));
#1278=CARTESIAN_POINT('',(-0.15,-10.,13.));
#1279=CARTESIAN_POINT('',(-10.,-10.,0.));
#1280=CARTESIAN_POINT('',(29.4,-10.,0.));
#1281=CARTESIAN_POINT('Origin',(29.4,-10.,0.));
#1282=CARTESIAN_POINT('',(29.4,67.8,13.));
#1283=CARTESIAN_POINT('',(29.4,9.45,13.));
#1284=CARTESIAN_POINT('',(29.4,67.8,0.));
#1285=CARTESIAN_POINT('Origin',(24.4,62.8,0.));
#1286=CARTESIAN_POINT('',(22.95,62.8,13.));
#1287=CARTESIAN_POINT('',(22.95,62.8,0.));
#1288=CARTESIAN_POINT('Origin',(24.4,62.8,13.));
#1289=CARTESIAN_POINT('Origin',(-5.,-5.,0.));
#1290=CARTESIAN_POINT('',(-6.45,-5.,13.));
#1291=CARTESIAN_POINT('',(-6.45,-5.,0.));
#1292=CARTESIAN_POINT('Origin',(-5.,-5.,13.));
#1293=CARTESIAN_POINT('Origin',(-5.,62.8,0.));
#1294=CARTESIAN_POINT('',(-6.45,62.8,13.));
#1295=CARTESIAN_POINT('',(-6.45,62.8,0.));
#1296=CARTESIAN_POINT('Origin',(-5.,62.8,13.));
#1297=CARTESIAN_POINT('Origin',(24.4,-5.,0.));
#1298=CARTESIAN_POINT('',(22.95,-5.,13.));
#1299=CARTESIAN_POINT('',(22.95,-5.,0.));
#1300=CARTESIAN_POINT('Origin',(24.4,-5.,13.));
#1301=CARTESIAN_POINT('Origin',(29.4,67.8,0.));
#1302=CARTESIAN_POINT('',(-10.,67.8,13.));
#1303=CARTESIAN_POINT('',(19.55,67.8,13.));
#1304=CARTESIAN_POINT('',(-10.,67.8,0.));
#1305=CARTESIAN_POINT('Origin',(-10.,67.8,0.));
#1306=CARTESIAN_POINT('',(-10.,48.35,13.));
#1307=CARTESIAN_POINT('Origin',(9.7,28.9,13.));
#1308=CARTESIAN_POINT('Origin',(9.7,28.9,13.));
#1309=CARTESIAN_POINT('',(29.4,67.8,13.));
#1310=CARTESIAN_POINT('',(-10.,67.8,13.));
#1311=CARTESIAN_POINT('',(19.55,67.8,13.));
#1312=CARTESIAN_POINT('',(29.4,-10.,13.));
#1313=CARTESIAN_POINT('',(29.4,9.45,13.));
#1314=CARTESIAN_POINT('',(-10.,-10.,13.));
#1315=CARTESIAN_POINT('',(-0.15,-10.,13.));
#1316=CARTESIAN_POINT('',(-10.,48.35,13.));
#1317=CARTESIAN_POINT('',(16.82861,16.71295,13.));
#1318=CARTESIAN_POINT('',(2.57139,16.71295,13.));
#1319=CARTESIAN_POINT('',(13.264305,16.71295,13.));
#1320=CARTESIAN_POINT('',(2.57139,2.55372,13.));
#1321=CARTESIAN_POINT('',(2.57139,22.806475,13.));
#1322=CARTESIAN_POINT('',(16.82861,2.55372,13.));
#1323=CARTESIAN_POINT('',(6.135695,2.55372,13.));
#1324=CARTESIAN_POINT('',(16.82861,15.72686,13.));
#1325=CARTESIAN_POINT('',(16.82861,35.97962,13.));
#1326=CARTESIAN_POINT('',(2.57139,35.97962,13.));
#1327=CARTESIAN_POINT('',(13.264305,35.97962,13.));
#1328=CARTESIAN_POINT('',(2.57139,21.82038,13.));
#1329=CARTESIAN_POINT('',(2.57139,32.43981,13.));
#1330=CARTESIAN_POINT('',(16.82861,21.82038,13.));
#1331=CARTESIAN_POINT('',(6.135695,21.82038,13.));
#1332=CARTESIAN_POINT('',(16.82861,25.36019,13.));
#1333=CARTESIAN_POINT('',(16.82861,55.24628,13.));
#1334=CARTESIAN_POINT('',(2.57139,55.24628,13.));
#1335=CARTESIAN_POINT('',(13.264305,55.24628,13.));
#1336=CARTESIAN_POINT('',(2.57139,41.08705,13.));
#1337=CARTESIAN_POINT('',(2.57139,42.07314,13.));
#1338=CARTESIAN_POINT('',(16.82861,41.08705,13.));
#1339=CARTESIAN_POINT('',(6.135695,41.08705,13.));
#1340=CARTESIAN_POINT('',(16.82861,34.993525,13.));
#1341=CARTESIAN_POINT('',(22.95,62.8,13.));
#1342=CARTESIAN_POINT('Origin',(24.4,62.8,13.));
#1343=CARTESIAN_POINT('',(-6.45,-5.,13.));
#1344=CARTESIAN_POINT('Origin',(-5.,-5.,13.));
#1345=CARTESIAN_POINT('',(-6.45,62.8,13.));
#1346=CARTESIAN_POINT('Origin',(-5.,62.8,13.));
#1347=CARTESIAN_POINT('',(22.95,-5.,13.));
#1348=CARTESIAN_POINT('Origin',(24.4,-5.,13.));
#1349=CARTESIAN_POINT('Origin',(-10.,-10.,0.));
#1350=CARTESIAN_POINT('',(29.4,-10.,19.));
#1351=CARTESIAN_POINT('',(29.4,-10.,0.));
#1352=CARTESIAN_POINT('',(-10.,-10.,19.));
#1353=CARTESIAN_POINT('',(-10.,-10.,19.));
#1354=CARTESIAN_POINT('',(-10.,-10.,0.));
#1355=CARTESIAN_POINT('Origin',(29.4,-10.,0.));
#1356=CARTESIAN_POINT('',(29.4,67.8,19.));
#1357=CARTESIAN_POINT('',(29.4,67.8,0.));
#1358=CARTESIAN_POINT('',(29.4,-10.,19.));
#1359=CARTESIAN_POINT('Origin',(9.7,28.9,19.));
#1360=CARTESIAN_POINT('',(-10.,67.8,19.));
#1361=CARTESIAN_POINT('',(-10.,67.8,19.));
#1362=CARTESIAN_POINT('',(29.4,67.8,19.));
#1363=CARTESIAN_POINT('',(2.57139,16.71295,19.));
#1364=CARTESIAN_POINT('',(16.82861,16.71295,19.));
#1365=CARTESIAN_POINT('',(13.264305,16.71295,19.));
#1366=CARTESIAN_POINT('',(16.82861,2.55372,19.));
#1367=CARTESIAN_POINT('',(16.82861,15.72686,19.));
#1368=CARTESIAN_POINT('',(2.57139,2.55372,19.));
#1369=CARTESIAN_POINT('',(6.135695,2.55372,19.));
#1370=CARTESIAN_POINT('',(2.57139,22.806475,19.));
#1371=CARTESIAN_POINT('',(2.57139,35.97962,19.));
#1372=CARTESIAN_POINT('',(16.82861,35.97962,19.));
#1373=CARTESIAN_POINT('',(13.264305,35.97962,19.));
#1374=CARTESIAN_POINT('',(16.82861,21.82038,19.));
#1375=CARTESIAN_POINT('',(16.82861,25.36019,19.));
#1376=CARTESIAN_POINT('',(2.57139,21.82038,19.));
#1377=CARTESIAN_POINT('',(6.135695,21.82038,19.));
#1378=CARTESIAN_POINT('',(2.57139,32.43981,19.));
#1379=CARTESIAN_POINT('',(2.57139,55.24628,19.));
#1380=CARTESIAN_POINT('',(16.82861,55.24628,19.));
#1381=CARTESIAN_POINT('',(13.264305,55.24628,19.));
#1382=CARTESIAN_POINT('',(16.82861,41.08705,19.));
#1383=CARTESIAN_POINT('',(16.82861,34.993525,19.));
#1384=CARTESIAN_POINT('',(2.57139,41.08705,19.));
#1385=CARTESIAN_POINT('',(6.135695,41.08705,19.));
#1386=CARTESIAN_POINT('',(2.57139,42.07314,19.));
#1387=CARTESIAN_POINT('',(22.95,62.8,19.));
#1388=CARTESIAN_POINT('Origin',(24.4,62.8,19.));
#1389=CARTESIAN_POINT('',(-6.45,-5.,19.));
#1390=CARTESIAN_POINT('Origin',(-5.,-5.,19.));
#1391=CARTESIAN_POINT('',(-6.45,62.8,19.));
#1392=CARTESIAN_POINT('Origin',(-5.,62.8,19.));
#1393=CARTESIAN_POINT('',(22.95,-5.,19.));
#1394=CARTESIAN_POINT('Origin',(24.4,-5.,19.));
#1395=CARTESIAN_POINT('Origin',(24.4,-5.,0.));
#1396=CARTESIAN_POINT('',(22.95,-5.,0.));
#1397=CARTESIAN_POINT('Origin',(-5.,62.8,0.));
#1398=CARTESIAN_POINT('',(-6.45,62.8,0.));
#1399=CARTESIAN_POINT('Origin',(-5.,-5.,0.));
#1400=CARTESIAN_POINT('',(-6.45,-5.,0.));
#1401=CARTESIAN_POINT('Origin',(24.4,62.8,0.));
#1402=CARTESIAN_POINT('',(22.95,62.8,0.));
#1403=CARTESIAN_POINT('Origin',(29.4,67.8,0.));
#1404=CARTESIAN_POINT('',(-10.,67.8,0.));
#1405=CARTESIAN_POINT('Origin',(-10.,67.8,0.));
#1406=CARTESIAN_POINT('Origin',(2.57139,16.71295,13.));
#1407=CARTESIAN_POINT('',(2.57139,16.71295,13.));
#1408=CARTESIAN_POINT('',(2.57139,2.55372,16.));
#1409=CARTESIAN_POINT('Origin',(16.82861,16.71295,13.));
#1410=CARTESIAN_POINT('',(16.82861,16.71295,16.));
#1411=CARTESIAN_POINT('Origin',(16.82861,2.55372,13.));
#1412=CARTESIAN_POINT('',(16.82861,2.55372,16.));
#1413=CARTESIAN_POINT('Origin',(2.57139,2.55372,13.));
#1414=CARTESIAN_POINT('Origin',(2.57139,35.97962,13.));
#1415=CARTESIAN_POINT('',(2.57139,35.97962,13.));
#1416=CARTESIAN_POINT('',(2.57139,21.82038,16.));
#1417=CARTESIAN_POINT('Origin',(16.82861,35.97962,13.));
#1418=CARTESIAN_POINT('',(16.82861,35.97962,16.));
#1419=CARTESIAN_POINT('Origin',(16.82861,21.82038,13.));
#1420=CARTESIAN_POINT('',(16.82861,21.82038,16.));
#1421=CARTESIAN_POINT('Origin',(2.57139,21.82038,13.));
#1422=CARTESIAN_POINT('Origin',(2.57139,55.24628,13.));
#1423=CARTESIAN_POINT('',(2.57139,55.24628,13.));
#1424=CARTESIAN_POINT('',(2.57139,41.08705,16.));
#1425=CARTESIAN_POINT('Origin',(16.82861,55.24628,13.));
#1426=CARTESIAN_POINT('',(16.82861,55.24628,16.));
#1427=CARTESIAN_POINT('Origin',(16.82861,41.08705,13.));
#1428=CARTESIAN_POINT('',(16.82861,41.08705,16.));
#1429=CARTESIAN_POINT('Origin',(2.57139,41.08705,13.));
#1430=CARTESIAN_POINT('Origin',(9.7,-9.9,6.5));
#1431=CARTESIAN_POINT('',(29.4,-9.9,13.));
#1432=CARTESIAN_POINT('',(29.4,-9.9,0.));
#1433=CARTESIAN_POINT('',(29.4,-9.9,0.));
#1434=CARTESIAN_POINT('',(-10.,-9.9,0.));
#1435=CARTESIAN_POINT('',(-10.,-9.9,0.));
#1436=CARTESIAN_POINT('',(-10.,-9.9,13.));
#1437=CARTESIAN_POINT('',(-10.,-9.9,13.));
#1438=CARTESIAN_POINT('',(29.4,-9.9,13.));
#1439=CARTESIAN_POINT('',(0.,-9.9,10.5));
#1440=CARTESIAN_POINT('',(0.,-9.9,2.5));
#1441=CARTESIAN_POINT('',(0.,-9.9,10.5));
#1442=CARTESIAN_POINT('',(19.4,-9.9,2.5));
#1443=CARTESIAN_POINT('',(0.,-9.9,2.5));
#1444=CARTESIAN_POINT('',(19.4,-9.9,10.5));
#1445=CARTESIAN_POINT('',(19.4,-9.9,2.5));
#1446=CARTESIAN_POINT('',(19.4,-9.9,10.5));
#1447=CARTESIAN_POINT('Origin',(19.4,-10.,2.5));
#1448=CARTESIAN_POINT('',(0.,-10.1,2.5));
#1449=CARTESIAN_POINT('',(0.,-10.,2.5));
#1450=CARTESIAN_POINT('',(19.4,-10.1,2.5));
#1451=CARTESIAN_POINT('',(0.,-10.1,2.5));
#1452=CARTESIAN_POINT('',(19.4,-10.,2.5));
#1453=CARTESIAN_POINT('Origin',(19.4,-10.,10.5));
#1454=CARTESIAN_POINT('',(19.4,-10.1,10.5));
#1455=CARTESIAN_POINT('',(19.4,-10.1,2.5));
#1456=CARTESIAN_POINT('',(19.4,-10.,10.5));
#1457=CARTESIAN_POINT('Origin',(0.,-10.,10.5));
#1458=CARTESIAN_POINT('',(0.,-10.1,10.5));
#1459=CARTESIAN_POINT('',(19.4,-10.1,10.5));
#1460=CARTESIAN_POINT('',(0.,-10.,10.5));
#1461=CARTESIAN_POINT('Origin',(0.,-10.,2.5));
#1462=CARTESIAN_POINT('',(0.,-10.1,10.5));
#1463=CARTESIAN_POINT('Origin',(-10.,-10.,0.));
#1464=CARTESIAN_POINT('',(29.4,-10.1,0.));
#1465=CARTESIAN_POINT('',(29.4,-10.,0.));
#1466=CARTESIAN_POINT('',(-10.,-10.1,0.));
#1467=CARTESIAN_POINT('',(-10.,-10.1,0.));
#1468=CARTESIAN_POINT('',(-10.,-10.,0.));
#1469=CARTESIAN_POINT('Origin',(-10.,-10.,13.));
#1470=CARTESIAN_POINT('',(-10.,-10.1,13.));
#1471=CARTESIAN_POINT('',(-10.,-10.1,13.));
#1472=CARTESIAN_POINT('',(-10.,-10.,13.));
#1473=CARTESIAN_POINT('Origin',(29.4,-10.,13.));
#1474=CARTESIAN_POINT('',(29.4,-10.1,13.));
#1475=CARTESIAN_POINT('',(29.4,-10.1,13.));
#1476=CARTESIAN_POINT('',(29.4,-10.,13.));
#1477=CARTESIAN_POINT('Origin',(29.4,-10.,0.));
#1478=CARTESIAN_POINT('',(29.4,-10.1,0.));
#1479=CARTESIAN_POINT('Origin',(9.7,-10.1,6.5));
#1480=UNCERTAINTY_MEASURE_WITH_UNIT(LENGTH_MEASURE(0.01),#1484,
'DISTANCE_ACCURACY_VALUE',
'Maximum model space distance between geometric entities at asserted c
onnectivities');
#1481=UNCERTAINTY_MEASURE_WITH_UNIT(LENGTH_MEASURE(0.01),#1484,
'DISTANCE_ACCURACY_VALUE',
'Maximum model space distance between geometric entities at asserted c
onnectivities');
#1482=(
GEOMETRIC_REPRESENTATION_CONTEXT(3)
GLOBAL_UNCERTAINTY_ASSIGNED_CONTEXT((#1480))
GLOBAL_UNIT_ASSIGNED_CONTEXT((#1484,#1486,#1487))
REPRESENTATION_CONTEXT('','3D')
);
#1483=(
GEOMETRIC_REPRESENTATION_CONTEXT(3)
GLOBAL_UNCERTAINTY_ASSIGNED_CONTEXT((#1481))
GLOBAL_UNIT_ASSIGNED_CONTEXT((#1484,#1486,#1487))
REPRESENTATION_CONTEXT('','3D')
);
#1484=(
LENGTH_UNIT()
NAMED_UNIT(*)
SI_UNIT(.MILLI.,.METRE.)
);
#1485=(
LENGTH_UNIT()
NAMED_UNIT(*)
SI_UNIT($,.METRE.)
);
#1486=(
NAMED_UNIT(*)
PLANE_ANGLE_UNIT()
SI_UNIT($,.RADIAN.)
);
#1487=(
NAMED_UNIT(*)
SI_UNIT($,.STERADIAN.)
SOLID_ANGLE_UNIT()
);
#1488=SHAPE_DEFINITION_REPRESENTATION(#1489,#1490);
#1489=PRODUCT_DEFINITION_SHAPE('',$,#1492);
#1490=SHAPE_REPRESENTATION('',(#936),#1482);
#1491=PRODUCT_DEFINITION_CONTEXT('part definition',#1496,'design');
#1492=PRODUCT_DEFINITION('2026-07-27-19-25-03-228',
'Hackpad Sai Shreyansh',#1493,#1491);
#1493=PRODUCT_DEFINITION_FORMATION('',$,#1498);
#1494=PRODUCT_RELATED_PRODUCT_CATEGORY('Hackpad Sai Shreyansh',
'Hackpad Sai Shreyansh',(#1498));
#1495=APPLICATION_PROTOCOL_DEFINITION('international standard',
'automotive_design',2009,#1496);
#1496=APPLICATION_CONTEXT(
'Core Data for Automotive Mechanical Design Process');
#1497=PRODUCT_CONTEXT('part definition',#1496,'mechanical');
#1498=PRODUCT('2026-07-27-19-25-03-228','Hackpad Sai Shreyansh',$,(#1497));
#1499=PRESENTATION_STYLE_ASSIGNMENT((#1503));
#1500=PRESENTATION_STYLE_ASSIGNMENT((#1504));
#1501=PRESENTATION_STYLE_ASSIGNMENT((#1505));
#1502=PRESENTATION_STYLE_ASSIGNMENT((#1506));
#1503=SURFACE_STYLE_USAGE(.BOTH.,#1507);
#1504=SURFACE_STYLE_USAGE(.BOTH.,#1508);
#1505=SURFACE_STYLE_USAGE(.BOTH.,#1509);
#1506=SURFACE_STYLE_USAGE(.BOTH.,#1510);
#1507=SURFACE_SIDE_STYLE('',(#1511));
#1508=SURFACE_SIDE_STYLE('',(#1512));
#1509=SURFACE_SIDE_STYLE('',(#1513));
#1510=SURFACE_SIDE_STYLE('',(#1514));
#1511=SURFACE_STYLE_FILL_AREA(#1515);
#1512=SURFACE_STYLE_FILL_AREA(#1516);
#1513=SURFACE_STYLE_FILL_AREA(#1517);
#1514=SURFACE_STYLE_FILL_AREA(#1518);
#1515=FILL_AREA_STYLE('Steel - Satin',(#1519));
#1516=FILL_AREA_STYLE('Base Black',(#1520));
#1517=FILL_AREA_STYLE('Plate Red',(#1521));
#1518=FILL_AREA_STYLE('Plate Blue',(#1522));
#1519=FILL_AREA_STYLE_COLOUR('Steel - Satin',#1523);
#1520=FILL_AREA_STYLE_COLOUR('Base Black',#1524);
#1521=FILL_AREA_STYLE_COLOUR('Plate Red',#1525);
#1522=FILL_AREA_STYLE_COLOUR('Plate Blue',#1526);
#1523=COLOUR_RGB('Steel - Satin',0.627450980392157,0.627450980392157,0.627450980392157);
#1524=COLOUR_RGB('Base Black',0.0980392156862745,0.0980392156862745,0.0980392156862745);
#1525=COLOUR_RGB('Plate Red',0.768627450980392,0.207843137254902,0.152941176470588);
#1526=COLOUR_RGB('Plate Blue',0.188235294117647,0.231372549019608,0.588235294117647);
ENDSEC;
END-ISO-10303-21;
